{"title":"Parked 2010 DvDRip XviD Ac3 Feel-Free","uid":7096908,"size":1306022919,"categoryP":"video","categoryS":"movies","magnet":"?xt=urn:btih:128067d7a5d4014dc9bddafb1f602ad24d1d438f&amp;dn=Parked+2010+DvDRip+XviD+Ac3+Feel-Free&amp;tr=udp%3A%2F%2Ftracker.openbittorrent.com%3A80&amp;tr=udp%3A%2F%2Fopen.demonii.com%3A1337&amp;tr=udp%3A%2F%2Ftracker.coppersurfer.tk%3A6969&amp;tr=udp%3A%2F%2Fexodus.desync.com%3A6969","seeders":4,"leechers":0,"uploader":"bernardjk","files":8,"time":1331584890,"description":"Genre:Drama\nLanguage:English\nIMDb:http://www.imdb.com/title/tt1571409/\nSource:Legend-Rg Thanks!\nEncoder:Tony\n\nFormat : AVI\nFormat/Info : Audio Video Interleave\nFile size : 1.22 GiB\nDuration : 1h 30mn\nOverall bit rate : 1 917 Kbps\n\n\nVideo\nID : 0\nFormat : MPEG-4 Visual\nFormat profile : Advanced Simple@L5\nFormat settings, BVOP : 1\nFormat settings, QPel : No\nFormat settings, GMC : No warppoints\nFormat settings, Matrix : Default (H.263)\nCodec ID : XVID\nCodec ID/Hint : XviD\nDuration : 1h 30mn\nBit rate : 1 459 Kbps\nWidth : 688 pixels\nHeight : 288 pixels\nDisplay aspect ratio : 2.40:1\nFrame rate : 25.000 fps\nColor space : YUV\nChroma subsampling : 4:2:0\nBit depth : 8 bits\nScan type : Progressive\nCompression mode : Lossy\nBits/(Pixel*Frame) : 0.295\nStream size : 947 MiB (76%)\nWriting library : XviD 1.2.1 (UTC 2008-12-04)\n\nAudio\nID : 1\nFormat : AC-3\nFormat/Info : Audio Coding 3\nMode extension : CM (complete main)\nCodec ID : 2000\nDuration : 1h 30mn\nBit rate mode : Constant\nBit rate : 448 Kbps\nChannel(s) : 6 channels\nChannel positions : Front: L C R, Side: L R, LFE\nSampling rate : 48.0 KHz\nBit depth : 16 bits\nCompression mode : Lossy\nStream size : 291 MiB (23%)\nAlignment : Aligned on interleaves\nInterleave, duration : 40 ms (1.00 video frame)\nInterleave, preload duration : 512 ms\n\n\nPlot:\nFred Daly returns to Ireland with nowhere to live but his car. Then dope-smoking 21-year-old Cathal parks beside him...","torrent":{"xt":"urn:btih:128067d7a5d4014dc9bddafb1f602ad24d1d438f","amp;dn":"Parked+2010+DvDRip+XviD+Ac3+Feel-Free","amp;tr":["udp%3A%2F%2Ftracker.openbittorrent.com%3A80","udp%3A%2F%2Fopen.demonii.com%3A1337","udp%3A%2F%2Ftracker.coppersurfer.tk%3A6969","udp%3A%2F%2Fexodus.desync.com%3A6969"],"infoHash":"128067d7a5d4014dc9bddafb1f602ad24d1d438f","infoHashBuffer":{"type":"Buffer","data":[18,128,103,215,165,212,1,77,201,189,218,251,31,96,42,210,77,29,67,143]},"announce":[],"urlList":[]}}